# xmcd
#
# Track frame offsets:
#	150
#	30438
#	53917
#	71033
#	91871
#	110370
#	129825
#	151163
#	173469
#	197268
#	215405
#	235646
#	260448
#	292086
#	314159
#	328364
#	344109
#
# Disc length: 4788 seconds
#
# Revision: 0
# Processed by: cddbd v1.5.2PL0 Copyright (c) Steve Scherf et al.
# Submitted via: audiograbber 1.83.01
#
DISCID=f412b211
DTITLE=Cuby and The Blizzards - Collected ( disc III ) - Collected ( disc III )
DYEAR=2010
DGENRE=Blues
TTITLE0=I've Always Been Lonely
TTITLE1=So Many Roads
TTITLE2=Tough On Me Tough On You
TTITLE3=Brother Booze
TTITLE4=Broken Wings
TTITLE5=Bluesman
TTITLE6=At The End Of The Bar
TTITLE7=Sky Songs On The Spot
TTITLE8=No News
TTITLE9=TV-Blues
TTITLE10=The Big Sleep
TTITLE11=Dancing Bear
TTITLE12=Faceless Voices
TTITLE13=Nobody In Town
TTITLE14=Low Country Blues
TTITLE15=Mama Won't You Buy Me A Dream
TTITLE16=My Old Jimmy
EXTD=
EXTT0=
EXTT1=
EXTT2=
EXTT3=
EXTT4=
EXTT5=
EXTT6=
EXTT7=
EXTT8=
EXTT9=
EXTT10=
EXTT11=
EXTT12=
EXTT13=
EXTT14=
EXTT15=
EXTT16=
PLAYORDER=
